<svg xmlns="http://www.w3.org/2000/svg" viewBox="0 0 103.5 65.77"><title>Asset 1</title><g id="Layer_2" data-name="Layer 2"><g id="Layer_1-2" data-name="Layer 1"><path d="M12.92,52.6H25.84V46H12.92Zm19.38,0H45.22V46H32.3Zm6.51-19.76H12.92v6.59H38.81Zm-13-6.54H32.3L45.22,13.17H38.76ZM45.27,39.43H64.69V32.84H45.27ZM97,0H6.46C3.2,0,0,3.29,0,6.59v52.6c0,3.29,3.25,6.59,6.46,6.59H97c3.25,0,6.46-3.29,6.46-6.59V6.59C103.5,3.29,100.25,0,97,0Zm0,26.3V55.89s0,3.29-3.25,3.29H9.66c-3.25,0-3.25-3.29-3.25-3.29V26.3h6.46L25.79,13.17H6.36V9.83s0-3.29,3.25-3.29H93.74C97,6.54,97,9.83,97,9.83v3.29H58.18L45.27,26.3Z"/></g></g></svg>